<svg width="48" height="48" viewBox="0 0 48 48" fill="none" xmlns="http://www.w3.org/2000/svg">
<path d="M24.5357 37L12 31.0765L24.5357 25.6008L37.1059 31.0765L24.5357 37Z" fill="#BFB669"/>
<path d="M24.5357 37L12 31.0765L24.5357 25.6008L37.1059 31.0765L24.5357 37Z" stroke="black"/>
<path d="M12 15.4069V31.0765L24.5357 25.6008V10L12 15.4069Z" fill="#F3EA9E"/>
<path d="M37.0714 15.4413L37.1058 31.0765L24.5357 25.6008V10L37.0714 15.4413Z" fill="#E5DA7E"/>
<path d="M10.2178 11.2749L7.5 12.4471V15.4069V31.0765V33.9273L10.0775 35.1452L22.6132 41.0686L24.5331 41.9758L26.4539 41.0707L39.0241 35.1472L41.6122 33.9276L41.6059 31.0666L41.5714 15.4314L41.5649 12.4862L38.8632 11.3134L26.3275 5.8721L24.5414 5.09682L22.7535 5.86797L10.2178 11.2749Z" stroke="#4B4931" stroke-width="9"/>
<path d="M10.8119 12.6522L9 13.4337V15.4069V31.0765V32.977L10.7183 33.789L23.254 39.7124L24.534 40.3172L25.8145 39.7138L38.3847 33.7903L40.1101 32.9773L40.1059 31.0699L40.0714 15.4347L40.0671 13.4712L38.2659 12.6894L25.7302 7.24807L24.5395 6.73121L23.3476 7.24531L10.8119 12.6522Z" stroke="#7D7746" stroke-width="6"/>
<path d="M11.4059 14.0295L10.5 14.4203V15.4069V31.0765V32.0268L11.3592 32.4327L23.8949 38.3562L24.5348 38.6586L25.1751 38.3569L37.7453 32.4334L38.608 32.0269L38.6059 31.0732L38.5714 15.438L38.5693 14.4563L37.6687 14.0654L25.133 8.62403L24.5376 8.36561L23.9416 8.62266L11.4059 14.0295Z" stroke="#E2D98A" stroke-width="3"/>
<path d="M24.5357 37L12 31.0765L24.5357 25.6008L37.1059 31.0765L24.5357 37Z" fill="#BFB669"/>
<path d="M24.5357 37L12 31.0765L24.5357 25.6008L37.1059 31.0765L24.5357 37Z" stroke="black"/>
<path d="M12 15.4069V31.0765L24.5357 25.6008V10L12 15.4069Z" fill="#F3EA9E"/>
<path d="M37.0714 15.4413L37.1058 31.0765L24.5357 25.6008V10L37.0714 15.4413Z" fill="#E5DA7E"/>
<path d="M10.2178 11.2749L7.5 12.4471V15.4069V31.0765V33.9273L10.0775 35.1452L22.6132 41.0686L24.5331 41.9758L26.4539 41.0707L39.0241 35.1472L41.6122 33.9276L41.6059 31.0666L41.5714 15.4314L41.5649 12.4862L38.8632 11.3134L26.3275 5.8721L24.5414 5.09682L22.7535 5.86797L10.2178 11.2749Z" stroke="#4B4931" stroke-width="9"/>
<path d="M10.8119 12.6522L9 13.4337V15.4069V31.0765V32.977L10.7183 33.789L23.254 39.7124L24.534 40.3172L25.8145 39.7138L38.3847 33.7903L40.1101 32.9773L40.1059 31.0699L40.0714 15.4347L40.0671 13.4712L38.2659 12.6894L25.7302 7.24807L24.5395 6.73121L23.3476 7.24531L10.8119 12.6522Z" stroke="#7D7746" stroke-width="6"/>
<path d="M11.4059 14.0295L10.5 14.4203V15.4069V31.0765V32.0268L11.3592 32.4327L23.8949 38.3562L24.5348 38.6586L25.1751 38.3569L37.7453 32.4334L38.608 32.0269L38.6059 31.0732L38.5714 15.438L38.5693 14.4563L37.6687 14.0654L25.133 8.62403L24.5376 8.36561L23.9416 8.62266L11.4059 14.0295Z" stroke="#E2D98A" stroke-width="3"/>
<path d="M24.5357 37L12 31.0765L24.5357 25.6008L37.1059 31.0765L24.5357 37Z" fill="#BFB669"/>
<path d="M24.5357 37L12 31.0765L24.5357 25.6008L37.1059 31.0765L24.5357 37Z" stroke="black"/>
<path d="M12 15.4069V31.0765L24.5357 25.6008V10L12 15.4069Z" fill="#F3EA9E"/>
<path d="M37.0714 15.4413L37.1058 31.0765L24.5357 25.6008V10L37.0714 15.4413Z" fill="#E5DA7E"/>
<path d="M10.2178 11.2749L7.5 12.4471V15.4069V31.0765V33.9273L10.0775 35.1452L22.6132 41.0686L24.5331 41.9758L26.4539 41.0707L39.0241 35.1472L41.6122 33.9276L41.6059 31.0666L41.5714 15.4314L41.5649 12.4862L38.8632 11.3134L26.3275 5.8721L24.5414 5.09682L22.7535 5.86797L10.2178 11.2749Z" stroke="#4B4931" stroke-width="9"/>
<path d="M10.8119 12.6522L9 13.4337V15.4069V31.0765V32.977L10.7183 33.789L23.254 39.7124L24.534 40.3172L25.8145 39.7138L38.3847 33.7903L40.1101 32.9773L40.1059 31.0699L40.0714 15.4347L40.0671 13.4712L38.2659 12.6894L25.7302 7.24807L24.5395 6.73121L23.3476 7.24531L10.8119 12.6522Z" stroke="#7D7746" stroke-width="6"/>
<path d="M11.4059 14.0295L10.5 14.4203V15.4069V31.0765V32.0268L11.3592 32.4327L23.8949 38.3562L24.5348 38.6586L25.1751 38.3569L37.7453 32.4334L38.608 32.0269L38.6059 31.0732L38.5714 15.438L38.5693 14.4563L37.6687 14.0654L25.133 8.62403L24.5376 8.36561L23.9416 8.62266L11.4059 14.0295Z" stroke="#E2D98A" stroke-width="3"/>
</svg>
