<svg width="64" height="64" viewBox="0 0 64 64" fill="none" xmlns="http://www.w3.org/2000/svg">
<path d="M31.9808 47.1125L18 40.5062L31.9808 34.3992L46 40.5062L31.9808 47.1125Z" fill="#BFB669"/>
<path d="M31.9808 47.1125L18 40.5062L31.9808 34.3992L46 40.5062L31.9808 47.1125Z" stroke="black"/>
<path d="M18 23.0302V40.5062L31.9808 34.3992V17L18 23.0302Z" fill="#F3EA9E"/>
<path d="M45.9616 23.0686L46 40.5062L31.9808 34.3992V17L45.9616 23.0686Z" fill="#E5DA7E"/>
<path d="M15.0296 16.1435L10.5 18.0972V23.0302V40.5062V45.2574L14.7958 47.2872L28.7766 53.8936L31.9764 55.4056L35.1779 53.8969L49.1971 47.2906L53.5105 45.258L53.5 40.4897L53.4616 23.0521L53.4508 18.1433L48.9479 16.1888L34.9671 10.1202L31.9903 8.82803L29.0104 10.1133L15.0296 16.1435Z" stroke="#4B4931" stroke-width="15"/>
<path d="M16.0198 18.439L13 19.7415V23.0302V40.5062V43.6736L15.8638 45.0269L29.8446 51.6332L31.9779 52.6412L34.1122 51.6355L48.1314 45.0291L51.007 43.6741L51 40.4952L50.9616 23.0576L50.9544 19.7851L47.9525 18.482L33.9717 12.4134L31.9871 11.552L30.0005 12.4089L16.0198 18.439Z" stroke="#7D7746" stroke-width="10"/>
<path d="M17.0099 20.7346L15.5 21.3858V23.0302V40.5062V42.0899L16.9319 42.7665L30.9127 49.3728L31.9793 49.8768L33.0465 49.374L47.0657 42.7677L48.5035 42.0901L48.5 40.5007L48.4616 23.0631L48.458 21.4268L46.957 20.7753L32.9762 14.7067L31.9839 14.276L30.9907 14.7044L17.0099 20.7346Z" stroke="#E2D98A" stroke-width="5"/>
<path d="M32.4451 27.5381C34.0292 27.5381 34.6166 28.2946 34.67 29.4071H36.6368C36.5745 27.8763 35.64 26.4702 33.78 26.0163V24.0673H31.1101V25.9896C30.7631 26.0608 30.4427 26.1765 30.1312 26.31L31.475 27.6538C31.7598 27.5826 32.0891 27.5381 32.4451 27.5381ZM26.1887 24.8861L24.9338 26.1409L27.9953 29.2024C27.9953 31.0535 29.3836 32.068 31.475 32.6821L34.5988 35.8058C34.2962 36.2419 33.6643 36.6157 32.4451 36.6157C30.6118 36.6157 29.8909 35.7969 29.793 34.7468H27.8351C27.9419 36.6958 29.4014 37.7905 31.1101 38.1553V40.0865H33.78V38.1731C34.6344 38.0129 35.4086 37.6837 35.9693 37.1764L37.945 39.1521L39.1999 37.8972L26.1887 24.8861Z" fill="black" fill-opacity="0.25"/>
<path d="M31.843 26.8991C33.4272 26.8991 34.0145 27.6556 34.0679 28.768H36.0347C35.9724 27.2373 35.038 25.8312 33.178 25.3773V23.4283H30.5081V25.3506C30.161 25.4218 29.8406 25.5375 29.5291 25.671L30.873 27.0148C31.1578 26.9436 31.487 26.8991 31.843 26.8991ZM25.5866 24.247L24.3318 25.5019L27.3932 28.5633C27.3932 30.4145 28.7816 31.429 30.873 32.0431L33.9967 35.1668C33.6941 35.6029 33.0623 35.9767 31.843 35.9767C30.0097 35.9767 29.2889 35.1579 29.191 34.1078H27.233C27.3398 36.0568 28.7994 37.1514 30.5081 37.5163V39.4475H33.178V37.5341C34.0323 37.3739 34.8066 37.0446 35.3673 36.5374L37.343 38.5131L38.5978 37.2582L25.5866 24.247Z" fill="black"/>
</svg>
