<svg width="256" height="256" viewBox="0 0 256 256" fill="none" xmlns="http://www.w3.org/2000/svg">
<path d="M127.416 194.28L66 165.259L127.416 138.432L189 165.259L127.416 194.28Z" fill="#BFB669"/>
<path d="M127.416 194.28L66 165.259L127.416 138.432L189 165.259L127.416 194.28Z" stroke="black"/>
<path d="M66 88.4897V165.259L127.416 138.432V62L66 88.4897Z" fill="#F3EA9E"/>
<path d="M188.831 88.6584L189 165.259L127.416 138.432V62L188.831 88.6584Z" fill="#E5DA7E"/>
<path d="M55.1086 63.2384L38.5 70.402V88.4897V165.259V182.68L54.2511 190.123L115.667 219.144L127.4 224.688L139.138 219.156L200.723 190.136L216.538 182.683L216.5 165.199L216.331 88.5979L216.292 70.5991L199.781 63.4324L138.365 36.774L127.45 32.0361L116.524 36.7487L55.1086 63.2384Z" stroke="#4B4931" stroke-width="55"/>
<path d="M59.0691 72.4207L48.5 76.9794V88.4897V165.259V176.345L58.5234 181.082L119.939 210.102L127.405 213.63L134.875 210.11L196.46 181.09L206.524 176.347L206.5 165.221L206.331 88.6199L206.306 77.1661L195.799 72.6055L134.384 45.9471L127.438 42.9321L120.485 45.931L59.0691 72.4207Z" stroke="#7D7746" stroke-width="35"/>
<path d="M63.0296 81.603L58.5 83.5567V88.4897V165.259V170.01L62.7958 172.04L124.211 201.061L127.411 202.573L130.613 201.064L192.197 172.044L196.51 170.011L196.5 165.243L196.331 88.6419L196.32 83.7332L191.818 81.7786L130.402 55.1202L127.425 53.828L124.445 55.1133L63.0296 81.603Z" stroke="#E2D98A" stroke-width="15"/>
<path d="M129.455 108.293C136.414 108.293 138.994 111.616 139.229 116.502H147.868C147.595 109.778 143.49 103.601 135.319 101.607V93.0457H123.591V101.49C122.066 101.803 120.659 102.311 119.29 102.897L125.194 108.801C126.445 108.488 127.891 108.293 129.455 108.293ZM101.971 96.6424L96.4591 102.155L109.908 115.603C109.908 123.735 116.006 128.192 125.194 130.889L138.916 144.611C137.587 146.527 134.811 148.169 129.455 148.169C121.401 148.169 118.235 144.572 117.805 139.959H109.204C109.673 148.521 116.085 153.329 123.591 154.932V163.416H135.319V155.011C139.072 154.307 142.473 152.86 144.936 150.632L153.615 159.311L159.128 153.799L101.971 96.6424Z" fill="black" fill-opacity="0.25"/>
<path d="M126.811 105.485C133.769 105.485 136.35 108.808 136.584 113.695H145.224C144.95 106.971 140.845 100.794 132.675 98.8003V90.2385H120.946V98.683C119.422 98.9957 118.014 99.504 116.646 100.09L122.549 105.994C123.8 105.681 125.247 105.485 126.811 105.485ZM99.327 93.8352L93.8147 99.3476L107.263 112.796C107.263 120.928 113.362 125.385 122.549 128.082L136.271 141.804C134.942 143.72 132.166 145.362 126.811 145.362C118.757 145.362 115.59 141.765 115.16 137.152H106.56C107.029 145.714 113.44 150.522 120.946 152.125V160.609H132.675V152.203C136.428 151.5 139.829 150.053 142.292 147.825L150.971 156.504L156.483 150.991L99.327 93.8352Z" fill="black"/>
</svg>
